<svg viewBox="0 0 24 24" fill-rule="evenodd"><path d="M17 5H7a7 7 0 0 0 0 14h10a7 7 0 0 0 0-14zm0 13H7A6 6 0 0 1 7 6h10a6 6 0 0 1 0 12z"></path><path d="M9 8.45l-2.44 7h.85l.7-2.06h2.82l.7 2.06h.88l-2.44-7zm-.69 4.18l1.19-3.4 1.18 3.4zm8.53-.74c0-1.09-.74-1.74-2-1.74a2 2 0 0 0-1.83 1l.48.45a1.44 1.44 0 0 1 1.31-.77c.82 0 1.22.4 1.22 1.13v.51H15c-1.5 0-2.2.54-2.2 1.51a1.52 1.52 0 0 0 1.73 1.56 1.46 1.46 0 0 0 1.49-1 .83.83 0 0 0 .89.84h.45v-.7h-.59zm-.8 2c0 .53-.57.94-1.36.94-.62 0-1-.29-1-.8v-.21c0-.5.41-.78 1.32-.78h1z"></path></svg>