<svg viewBox="0 0 24 24" fill-rule="evenodd"><path d="M5 1.75a1 1 0 0 1 .7.25l3.08 3.12a1 1 0 0 1 .13 1.26L7 9.26l-.46.68.58.58 6.36 6.36.58.58.68-.46 2.88-1.92a1 1 0 0 1 1.26.13L22 18.3a1 1 0 0 1-.15 1.54l-2.36 1.57a5 5 0 0 1-6.31-.62l-.37-.37-3.26-3.22-2.75-2.75-3.22-3.22-.37-.37a5 5 0 0 1-.62-6.31l1.57-2.36A1 1 0 0 1 5 1.75m0-1a2 2 0 0 0-1.67.89L1.75 4a6 6 0 0 0 .75 7.57l.37.37 3.23 3.22 2.74 2.74 3.22 3.23.37.37a6 6 0 0 0 7.57.75l2.36-1.57a2 2 0 0 0 .31-3.08l-3.08-3.08a2 2 0 0 0-2.53-.25l-2.88 1.92-6.36-6.37 1.92-2.88a2 2 0 0 0-.25-2.53L6.41 1.33A2 2 0 0 0 5 .75"></path></svg>