<svg viewBox="0 0 24 24" fill-rule="evenodd"><path d="M17.29 2A5.81 5.81 0 0 1 23 7.89a5.92 5.92 0 0 1-1.26 3.68 5.84 5.84 0 0 1-.89.92l-8.77 9-8.77-9a5.84 5.84 0 0 1-.89-.92A5.92 5.92 0 0 1 1 7.89 5.81 5.81 0 0 1 6.71 2a5.61 5.61 0 0 1 4.5 2.27L12 5.33l.8-1.06A5.61 5.61 0 0 1 17.29 2m0-1A6.63 6.63 0 0 0 12 3.67 6.63 6.63 0 0 0 6.71 1 6.8 6.8 0 0 0 0 7.89a7 7 0 0 0 1.47 4.29l-.06-.06.06.06a6.92 6.92 0 0 0 1 1.08L12 23l9.48-9.74a6.87 6.87 0 0 0 1-1.08l.06-.06-.06.06A7 7 0 0 0 24 7.89 6.8 6.8 0 0 0 17.29 1"></path></svg>