<svg viewBox="0 0 24 24" fill-rule="evenodd"><path d="M21.8 6.12a2.2 2.2 0 0 0-1.6 3.71l-3.11 3.89a2.13 2.13 0 0 0-2.11 0l-4.3-4.23A2.18 2.18 0 0 0 11 8.33a2.2 2.2 0 0 0-4.41 0A2.18 2.18 0 0 0 7 9.49l-3.64 3.58a2.22 2.22 0 1 0 .71.71l3.59-3.59a2.16 2.16 0 0 0 2.32 0l4.26 4.26a2.21 2.21 0 1 0 3.61-.08l3.19-4a2.18 2.18 0 0 0 .76.14 2.2 2.2 0 0 0 0-4.41zM2.2 16.14a1.2 1.2 0 1 1 1.2-1.2 1.21 1.21 0 0 1-1.2 1.2zm6.62-6.61A1.2 1.2 0 1 1 10 8.33a1.21 1.21 0 0 1-1.18 1.2zm7.26 7.35a1.2 1.2 0 1 1 1.2-1.2 1.21 1.21 0 0 1-1.21 1.2zm5.72-7.35a1.2 1.2 0 1 1 1.2-1.2 1.21 1.21 0 0 1-1.2 1.2z"></path></svg>