<svg viewBox="0 0 24 24" fill-rule="evenodd"><path d="M20.42 14.52a8.41 8.41 0 0 0 .25-1.94 8.57 8.57 0 0 0-4-7.24 4.65 4.65 0 0 0-9.27 0 8.58 8.58 0 0 0-4 7.24 8.42 8.42 0 0 0 .25 1.94A4.62 4.62 0 0 0 6.17 23 4.67 4.67 0 0 0 10 20.94a8.56 8.56 0 0 0 2 .25 8.62 8.62 0 0 0 2-.25 4.67 4.67 0 0 0 8.55-2.57 4.62 4.62 0 0 0-2.13-3.85zM12 2a3.63 3.63 0 1 1-3.67 3.63A3.65 3.65 0 0 1 12 2zM6.17 22a3.63 3.63 0 1 1 3.67-3.63A3.65 3.65 0 0 1 6.17 22zm7.32-2a7.42 7.42 0 0 1-1.48.17 7.43 7.43 0 0 1-1.5-.17 4.57 4.57 0 0 0 .32-1.65 4.65 4.65 0 0 0-6.33-4.3 7.25 7.25 0 0 1-.17-1.47 7.56 7.56 0 0 1 3.09-6.07 4.67 4.67 0 0 0 9.16 0 7.56 7.56 0 0 1 3.09 6.07 7.25 7.25 0 0 1-.17 1.47 4.65 4.65 0 0 0-6.33 4.31 4.57 4.57 0 0 0 .31 1.64zm4.35 2a3.63 3.63 0 1 1 3.67-3.63A3.65 3.65 0 0 1 17.83 22z"></path></svg>