<svg viewBox="0 0 24 24">
  <path d="M8 5a3 3 0 1 1-3 3 3 3 0 0 1 3-3m0-1a4 4 0 1 0 4 4 4 4 0 0 0-4-4zM17.5 3A2.5 2.5 0 1 1 15 5.5 2.5 2.5 0 0 1 17.5 3m0-1A3.5 3.5 0 1 0 21 5.5 3.5 3.5 0 0 0 17.5 2zM8 15a10 10 0 0 1 6 2v3a1 1 0 0 1-1 1H3a1 1 0 0 1-1-1v-3a10 10 0 0 1 6-2m0-1a11 11 0 0 0-7 2.51V20a2 2 0 0 0 2 2h10a2 2 0 0 0 2-2v-3.49A11 11 0 0 0 8 14zM17.5 11a9.41 9.41 0 0 0-5.43 1.72 11.91 11.91 0 0 1 1.11.46 8.45 8.45 0 0 1 8.82.12V16a1 1 0 0 1-1 1h-4v1h4a2 2 0 0 0 2-2v-3.24A9.45 9.45 0 0 0 17.5 11z"/>
</svg>
