<svg viewBox="0 0 24 24" fill-rule="evenodd"><path d="M2.06 8.45h1.36v1.24h.06a2.16 2.16 0 0 1 2.18-1.41c1.9 0 3 1.5 3 4s-1.14 4-3 4a2.16 2.16 0 0 1-2.18-1.42h-.06v4.17H2.06zm5.19 4.43v-1.29a1.94 1.94 0 0 0-2-2.13c-1 0-1.84.58-1.84 1.39v2.78c0 .8.82 1.39 1.84 1.39a1.94 1.94 0 0 0 2-2.14zm7.86 1.9h-.06a2.16 2.16 0 0 1-2.18 1.42c-1.9 0-3-1.51-3-4s1.14-4 3-4a2.16 2.16 0 0 1 2.18 1.42h.06V5.21h1.36V16h-1.36zm0-1.16v-2.77c0-.8-.82-1.39-1.84-1.39a1.94 1.94 0 0 0-2 2.13v1.29a1.94 1.94 0 0 0 2 2.13c1.02-.01 1.84-.58 1.84-1.38zM19 9.61h-1.22V8.45H19V7a1.64 1.64 0 0 1 1.77-1.84h1.18v1.2h-1.6v2.09h1.59v1.16h-1.59V16H19z"></path></svg>