<svg viewBox="0 0 24 24" fill-rule="evenodd"><path d="M12 8.33A3.67 3.67 0 1 0 15.67 12 3.67 3.67 0 0 0 12 8.33zm0 6.33A2.67 2.67 0 1 1 14.67 12 2.67 2.67 0 0 1 12 14.67z"></path><path d="M20.56 12a8.53 8.53 0 0 0-.08-1.11l2.17-2.6-2.58-4.16-3.28.78a8.58 8.58 0 0 0-1.27-.7L14.44 1H9.56L8.49 4.2a8.58 8.58 0 0 0-1.27.7l-3.29-.77-2.57 4.16 2.17 2.6A8.53 8.53 0 0 0 3.44 12a8.53 8.53 0 0 0 .08 1.11l-2.17 2.6 2.57 4.16 3.28-.78a8.57 8.57 0 0 0 1.27.7L9.56 23h4.89l1.07-3.21a8.57 8.57 0 0 0 1.27-.7l3.28.78 2.57-4.16-2.17-2.6a8.53 8.53 0 0 0 .09-1.11zm.85 3.8l-1.81 2.93-2.6-.61-.43-.1-.36.25a7.61 7.61 0 0 1-1.13.62l-.4.18-.14.42-.82 2.51h-3.44l-.84-2.52-.14-.42-.4-.18a7.55 7.55 0 0 1-1.12-.62L7.41 18l-.43.1-2.58.61-1.81-2.91 1.7-2 .28-.34-.05-.46a7.61 7.61 0 0 1-.07-1 7.59 7.59 0 0 1 .07-1l.06-.43-.28-.34-1.7-2 1.8-2.96 2.6.61.43.1.36-.25a7.55 7.55 0 0 1 1.11-.61l.4-.18.14-.41.84-2.53h3.45l.84 2.52.14.41.4.18a7.61 7.61 0 0 1 1.13.62l.36.25.43-.1 2.58-.61 1.8 2.93-1.7 2-.28.34.06.43a6.78 6.78 0 0 1 0 2l-.06.43.28.34z"></path></svg>