<svg viewBox="0 0 48 48">
  <path d="M38.5 22c-1.6 0-3.2.5-4.5 1.4l-7.8-7.8c.2-.9.3-1.7.3-2.6 0-1.7-.3-3.4-1-5h11.3c.8 2.6 3.6 4.1 6.3 3.3 2.6-.8 4.1-3.6 3.3-6.3-.8-2.6-3.6-4.1-6.3-3.3-1.6.5-2.8 1.7-3.3 3.3h-13C19.3-.7 11.1-1.7 5.5 2.8S-1.2 15.3 3.3 21c2.1 2.7 5.3 4.5 8.7 4.9v4.2c-4.9.9-8.2 5.5-7.4 10.4s5.5 8.2 10.4 7.4 8.2-5.5 7.4-10.4c-.6-3.8-3.6-6.7-7.4-7.4v-4.2c4.4-.5 8.2-3.2 10.1-7.1l6.7 6.7c-2.5 3.7-1.5 8.6 2.1 11.1 3.7 2.5 8.6 1.5 11.1-2.1 2.5-3.7 1.5-8.6-2.1-11.1-1.2-.9-2.8-1.4-4.4-1.4z"/>
</svg>
